<svg width="72" height="72" viewBox="0 0 72 72" fill="none" xmlns="http://www.w3.org/2000/svg">
  <defs>
    <linearGradient id="bg" x1="0" y1="0" x2="72" y2="72" gradientUnits="userSpaceOnUse">
      <stop offset="0%" stop-color="#1c1145" />
      <stop offset="100%" stop-color="#08091e" />
    </linearGradient>
    <linearGradient id="prism" x1="22" y1="20" x2="52" y2="58" gradientUnits="userSpaceOnUse">
      <stop offset="0%" stop-color="#a78bfa" />
      <stop offset="100%" stop-color="#22d3ee" />
    </linearGradient>
    <linearGradient id="left" x1="22" y1="20" x2="36" y2="56" gradientUnits="userSpaceOnUse">
      <stop offset="0%" stop-color="#7c3aed" />
      <stop offset="100%" stop-color="#4f46e5" />
    </linearGradient>
    <filter id="glow" x="-50%" y="-50%" width="200%" height="200%">
      <feGaussianBlur stdDeviation="2" result="b" />
      <feMerge><feMergeNode in="b" /><feMergeNode in="SourceGraphic" /></feMerge>
    </filter>
    <filter id="halo" x="-20%" y="-20%" width="140%" height="140%">
      <feGaussianBlur stdDeviation="5" />
    </filter>
    <filter id="dot" x="-100%" y="-100%" width="300%" height="300%">
      <feGaussianBlur stdDeviation="2.5" result="b" />
      <feMerge><feMergeNode in="b" /><feMergeNode in="SourceGraphic" /></feMerge>
    </filter>
  </defs>
  <rect x="8" y="8" width="56" height="56" rx="13" fill="#6d28d9" opacity="0.2" filter="url(#halo)" />
  <rect width="72" height="72" rx="18" fill="url(#bg)" />
  <rect x="0.75" y="0.75" width="70.5" height="70.5" rx="17.25" fill="none" stroke="rgba(167,139,250,0.2)" stroke-width="0.75" />
  <path d="M 18 1 Q 1 1 1 18" stroke="rgba(200,185,255,0.3)" stroke-width="1" fill="none" stroke-linecap="round" />
  <line x1="36" y1="19" x2="20" y2="7" stroke="#a78bfa" stroke-width="1.8" stroke-linecap="round" opacity="0.75" filter="url(#glow)" />
  <circle cx="20" cy="7" r="2" fill="#a78bfa" opacity="0.9" filter="url(#dot)" />
  <line x1="36" y1="19" x2="36" y2="5" stroke="#22d3ee" stroke-width="2" stroke-linecap="round" filter="url(#glow)" />
  <circle cx="36" cy="5" r="2.4" fill="#22d3ee" filter="url(#dot)" />
  <line x1="36" y1="19" x2="52" y2="7" stroke="#67e8f9" stroke-width="1.8" stroke-linecap="round" opacity="0.75" filter="url(#glow)" />
  <circle cx="52" cy="7" r="2" fill="#67e8f9" opacity="0.9" filter="url(#dot)" />
  <path d="M 36 19 L 22 38 L 36 56 Z" fill="url(#left)" filter="url(#glow)" />
  <path d="M 36 19 L 50 38 L 36 56 Z" fill="url(#prism)" filter="url(#glow)" />
  <line x1="36" y1="19" x2="36" y2="56" stroke="rgba(255,255,255,0.12)" stroke-width="0.75" />
  <line x1="24" y1="38" x2="48" y2="38" stroke="rgba(255,255,255,0.09)" stroke-width="0.75" />
  <circle cx="36" cy="19" r="3" fill="#c4b5fd" opacity="0.6" filter="url(#dot)" />
  <circle cx="36" cy="56" r="2" fill="#22d3ee" opacity="0.5" filter="url(#glow)" />
</svg>
